<!DOCTYPE svg PUBLIC "-//W3C//DTD SVG 1.1//EN" "http://www.w3.org/Graphics/SVG/1.1/DTD/svg11.dtd">
<!-- Uploaded to: SVG Repo, www.svgrepo.com, Transformed by: SVG Repo Mixer Tools -->
<svg width="800px" height="800px" viewBox="-1.6 -1.6 19.20 19.20" xmlns="http://www.w3.org/2000/svg" fill="#ffffff" class="bi bi-skip-backward-circle-fill" stroke="#ffffff" stroke-width="0.00016">
<g id="SVGRepo_bgCarrier" stroke-width="0" transform="translate(3.2800000000000002,3.2800000000000002), scale(0.59)">
<rect x="-1.6" y="-1.6" width="19.20" height="19.20" rx="9.6" fill="#000000" strokewidth="0"/>
</g>
<g id="SVGRepo_tracerCarrier" stroke-linecap="round" stroke-linejoin="round"/>
<g id="SVGRepo_iconCarrier"> <path d="M16 8A8 8 0 1 1 0 8a8 8 0 0 1 16 0zm-4.79-2.907L8.5 7.028V5.5a.5.5 0 0 0-.79-.407L5 7.028V5.5a.5.5 0 0 0-1 0v5a.5.5 0 0 0 1 0V8.972l2.71 1.935a.5.5 0 0 0 .79-.407V8.972l2.71 1.935A.5.5 0 0 0 12 10.5v-5a.5.5 0 0 0-.79-.407z"/> </g>
</svg>